<?xml version="1.0" encoding="UTF-8" standalone="no"?>
<svg
   width="512"
   height="512"
   viewBox="0 0 512 512"
   fill="none"
   version="1.1"
   id="svg1"
   sodipodi:docname="dark.svg"
   inkscape:version="1.4 (86a8ad7, 2024-10-11)"
   xmlns:inkscape="http://www.inkscape.org/namespaces/inkscape"
   xmlns:sodipodi="http://sodipodi.sourceforge.net/DTD/sodipodi-0.dtd"
   xmlns="http://www.w3.org/2000/svg"
   xmlns:svg="http://www.w3.org/2000/svg">
  <defs
     id="defs1" />
  <sodipodi:namedview
     id="namedview1"
     pagecolor="#ffffff"
     bordercolor="#000000"
     borderopacity="0.25"
     inkscape:showpageshadow="2"
     inkscape:pageopacity="0.0"
     inkscape:pagecheckerboard="0"
     inkscape:deskcolor="#d1d1d1"
     inkscape:zoom="1.5761719"
     inkscape:cx="256"
     inkscape:cy="256"
     inkscape:window-width="1920"
     inkscape:window-height="1009"
     inkscape:window-x="-8"
     inkscape:window-y="-8"
     inkscape:window-maximized="1"
     inkscape:current-layer="svg1" />
  <path
     fill-rule="evenodd"
     clip-rule="evenodd"
     d="M229.379 452.85C239.106 454.339 249.068 455.111 259.212 455.111C367.214 455.111 454.767 367.558 454.767 259.556C454.767 151.553 367.214 64 259.212 64C251.966 64 244.811 64.3941 237.77 65.1621C291.345 105.751 326.767 176.062 326.767 256C326.767 340.04 287.616 413.44 229.379 452.85ZM255.656 512C397.041 512 511.656 397.385 511.656 256C511.656 114.615 397.041 0 255.656 0C114.271 0 -0.34375 114.615 -0.34375 256C-0.34375 397.385 114.271 512 255.656 512Z"
     fill="white"
     id="path1"
     style="fill:#050505;fill-opacity:1" />
</svg>
